<mxfile host="app.diagrams.net" modified="2021-01-13T07:59:47.640Z" agent="5.0 (Windows NT 10.0; Win64; x64) AppleWebKit/537.36 (KHTML, like Gecko) Chrome/87.0.4280.88 Safari/537.36" etag="j19oz9dAZHEMCKVoKw6F" version="14.1.8" type="github">
  <diagram id="R2lEEEUBdFMjLlhIrx00" name="Page-1">
    <mxGraphModel dx="1110" dy="595" grid="1" gridSize="10" guides="1" tooltips="1" connect="1" arrows="1" fold="1" page="1" pageScale="1" pageWidth="850" pageHeight="1100" math="0" shadow="0" extFonts="Permanent Marker^https://fonts.googleapis.com/css?family=Permanent+Marker">
      <root>
        <mxCell id="0" />
        <mxCell id="1" parent="0" />
        <mxCell id="qChi3cOMpZM8t53Nzeiw-11" value="Relationship" style="shape=rhombus;perimeter=rhombusPerimeter;whiteSpace=wrap;html=1;align=center;" vertex="1" parent="1">
          <mxGeometry x="370" y="90" width="120" height="60" as="geometry" />
        </mxCell>
        <mxCell id="qChi3cOMpZM8t53Nzeiw-17" value="Email_Proveedor" style="ellipse;whiteSpace=wrap;html=1;align=center;" vertex="1" parent="1">
          <mxGeometry x="710" y="20" width="120" height="50" as="geometry" />
        </mxCell>
        <mxCell id="qChi3cOMpZM8t53Nzeiw-19" value="Telefono_Proovedor" style="ellipse;whiteSpace=wrap;html=1;align=center;" vertex="1" parent="1">
          <mxGeometry x="690" y="140" width="120" height="50" as="geometry" />
        </mxCell>
        <mxCell id="qChi3cOMpZM8t53Nzeiw-24" value="Nombre_Materia_Prima" style="rounded=1;arcSize=10;whiteSpace=wrap;html=1;align=center;" vertex="1" parent="1">
          <mxGeometry x="170" y="135" width="150" height="60" as="geometry" />
        </mxCell>
        <mxCell id="qChi3cOMpZM8t53Nzeiw-25" value="Proveedor" style="rounded=1;arcSize=10;whiteSpace=wrap;html=1;align=center;" vertex="1" parent="1">
          <mxGeometry x="560" y="70" width="100" height="50" as="geometry" />
        </mxCell>
        <mxCell id="qChi3cOMpZM8t53Nzeiw-28" value="Valor_Materia_Prima" style="ellipse;whiteSpace=wrap;html=1;align=center;" vertex="1" parent="1">
          <mxGeometry x="180" y="20" width="130" height="65" as="geometry" />
        </mxCell>
        <mxCell id="qChi3cOMpZM8t53Nzeiw-32" value="Nombre_Producto_Existente" style="rounded=1;arcSize=10;whiteSpace=wrap;html=1;align=center;" vertex="1" parent="1">
          <mxGeometry x="150" y="350" width="160" height="60" as="geometry" />
        </mxCell>
        <mxCell id="qChi3cOMpZM8t53Nzeiw-33" value="Relationship" style="shape=rhombus;perimeter=rhombusPerimeter;whiteSpace=wrap;html=1;align=center;" vertex="1" parent="1">
          <mxGeometry x="180" y="240" width="120" height="60" as="geometry" />
        </mxCell>
        <mxCell id="qChi3cOMpZM8t53Nzeiw-34" value="Valor_Producto" style="ellipse;whiteSpace=wrap;html=1;align=center;" vertex="1" parent="1">
          <mxGeometry x="40" y="460" width="100" height="40" as="geometry" />
        </mxCell>
        <mxCell id="qChi3cOMpZM8t53Nzeiw-36" value="Precio_Cuero" style="ellipse;whiteSpace=wrap;html=1;align=center;" vertex="1" parent="1">
          <mxGeometry x="20" y="70" width="100" height="40" as="geometry" />
        </mxCell>
        <mxCell id="qChi3cOMpZM8t53Nzeiw-37" value="Calidad_Cuero" style="ellipse;whiteSpace=wrap;html=1;align=center;" vertex="1" parent="1">
          <mxGeometry x="20" y="150" width="100" height="40" as="geometry" />
        </mxCell>
        <mxCell id="qChi3cOMpZM8t53Nzeiw-38" value="Tiempo_Invertido" style="ellipse;whiteSpace=wrap;html=1;align=center;" vertex="1" parent="1">
          <mxGeometry x="670" y="255" width="115" height="40" as="geometry" />
        </mxCell>
        <mxCell id="qChi3cOMpZM8t53Nzeiw-39" value="Valor_Hora_hombre" style="ellipse;whiteSpace=wrap;html=1;align=center;" vertex="1" parent="1">
          <mxGeometry x="700" y="365" width="130" height="40" as="geometry" />
        </mxCell>
        <mxCell id="qChi3cOMpZM8t53Nzeiw-40" value="Valor_Tiempo_Invertido" style="ellipse;whiteSpace=wrap;html=1;align=center;" vertex="1" parent="1">
          <mxGeometry x="497.5" y="270" width="140" height="50" as="geometry" />
        </mxCell>
        <mxCell id="qChi3cOMpZM8t53Nzeiw-41" value="Empleado" style="rounded=1;arcSize=10;whiteSpace=wrap;html=1;align=center;" vertex="1" parent="1">
          <mxGeometry x="500" y="355" width="120" height="50" as="geometry" />
        </mxCell>
        <mxCell id="qChi3cOMpZM8t53Nzeiw-42" value="Lotes_en_Stock" style="ellipse;whiteSpace=wrap;html=1;align=center;" vertex="1" parent="1">
          <mxGeometry x="10" y="380" width="100" height="40" as="geometry" />
        </mxCell>
        <mxCell id="qChi3cOMpZM8t53Nzeiw-43" value="Calidad_Lote" style="ellipse;whiteSpace=wrap;html=1;align=center;" vertex="1" parent="1">
          <mxGeometry x="10" y="310" width="100" height="40" as="geometry" />
        </mxCell>
        <mxCell id="qChi3cOMpZM8t53Nzeiw-45" value="Relationship" style="shape=rhombus;perimeter=rhombusPerimeter;whiteSpace=wrap;html=1;align=center;" vertex="1" parent="1">
          <mxGeometry x="170" y="460" width="120" height="60" as="geometry" />
        </mxCell>
        <mxCell id="qChi3cOMpZM8t53Nzeiw-46" value="Clientes" style="rounded=1;arcSize=10;whiteSpace=wrap;html=1;align=center;" vertex="1" parent="1">
          <mxGeometry x="170" y="590" width="120" height="50" as="geometry" />
        </mxCell>
        <mxCell id="qChi3cOMpZM8t53Nzeiw-47" value="Email_Cliente" style="ellipse;whiteSpace=wrap;html=1;align=center;" vertex="1" parent="1">
          <mxGeometry x="20" y="595" width="100" height="40" as="geometry" />
        </mxCell>
        <mxCell id="qChi3cOMpZM8t53Nzeiw-49" value="Orden_Compra" style="rounded=1;arcSize=10;whiteSpace=wrap;html=1;align=center;" vertex="1" parent="1">
          <mxGeometry x="510" y="560" width="120" height="50" as="geometry" />
        </mxCell>
        <mxCell id="qChi3cOMpZM8t53Nzeiw-50" value="Numero_OC" style="ellipse;whiteSpace=wrap;html=1;align=center;" vertex="1" parent="1">
          <mxGeometry x="520" y="470" width="100" height="40" as="geometry" />
        </mxCell>
        <mxCell id="qChi3cOMpZM8t53Nzeiw-51" value="Productos_OC" style="ellipse;whiteSpace=wrap;html=1;align=center;" vertex="1" parent="1">
          <mxGeometry x="655" y="520" width="100" height="40" as="geometry" />
        </mxCell>
        <mxCell id="qChi3cOMpZM8t53Nzeiw-52" value="Fecha_OC" style="ellipse;whiteSpace=wrap;html=1;align=center;" vertex="1" parent="1">
          <mxGeometry x="655" y="630" width="100" height="40" as="geometry" />
        </mxCell>
        <mxCell id="qChi3cOMpZM8t53Nzeiw-53" value="Total_OC" style="ellipse;whiteSpace=wrap;html=1;align=center;" vertex="1" parent="1">
          <mxGeometry x="480" y="670" width="100" height="40" as="geometry" />
        </mxCell>
        <mxCell id="qChi3cOMpZM8t53Nzeiw-55" value="" style="endArrow=none;html=1;rounded=0;exitX=0.5;exitY=0;exitDx=0;exitDy=0;entryX=0.5;entryY=1;entryDx=0;entryDy=0;" edge="1" parent="1" source="qChi3cOMpZM8t53Nzeiw-53" target="qChi3cOMpZM8t53Nzeiw-49">
          <mxGeometry relative="1" as="geometry">
            <mxPoint x="340" y="540" as="sourcePoint" />
            <mxPoint x="500" y="540" as="targetPoint" />
          </mxGeometry>
        </mxCell>
        <mxCell id="qChi3cOMpZM8t53Nzeiw-56" value="" style="endArrow=none;html=1;rounded=0;exitX=0.425;exitY=0.038;exitDx=0;exitDy=0;entryX=1;entryY=1;entryDx=0;entryDy=0;exitPerimeter=0;" edge="1" parent="1" source="qChi3cOMpZM8t53Nzeiw-52" target="qChi3cOMpZM8t53Nzeiw-49">
          <mxGeometry relative="1" as="geometry">
            <mxPoint x="540" y="680" as="sourcePoint" />
            <mxPoint x="580" y="620" as="targetPoint" />
          </mxGeometry>
        </mxCell>
        <mxCell id="qChi3cOMpZM8t53Nzeiw-57" value="" style="endArrow=none;html=1;rounded=0;exitX=0;exitY=0.5;exitDx=0;exitDy=0;entryX=1;entryY=0;entryDx=0;entryDy=0;" edge="1" parent="1" source="qChi3cOMpZM8t53Nzeiw-51" target="qChi3cOMpZM8t53Nzeiw-49">
          <mxGeometry relative="1" as="geometry">
            <mxPoint x="550" y="690" as="sourcePoint" />
            <mxPoint x="590" y="630" as="targetPoint" />
          </mxGeometry>
        </mxCell>
        <mxCell id="qChi3cOMpZM8t53Nzeiw-58" value="" style="endArrow=none;html=1;rounded=0;exitX=0.5;exitY=1;exitDx=0;exitDy=0;entryX=0.5;entryY=0;entryDx=0;entryDy=0;" edge="1" parent="1" source="qChi3cOMpZM8t53Nzeiw-50" target="qChi3cOMpZM8t53Nzeiw-49">
          <mxGeometry relative="1" as="geometry">
            <mxPoint x="560" y="700" as="sourcePoint" />
            <mxPoint x="600" y="640" as="targetPoint" />
          </mxGeometry>
        </mxCell>
        <mxCell id="qChi3cOMpZM8t53Nzeiw-59" value="" style="endArrow=none;html=1;rounded=0;exitX=0;exitY=0.5;exitDx=0;exitDy=0;entryX=1;entryY=0.5;entryDx=0;entryDy=0;" edge="1" parent="1" source="qChi3cOMpZM8t53Nzeiw-46" target="qChi3cOMpZM8t53Nzeiw-47">
          <mxGeometry relative="1" as="geometry">
            <mxPoint x="80" y="675" as="sourcePoint" />
            <mxPoint x="120" y="615" as="targetPoint" />
          </mxGeometry>
        </mxCell>
        <mxCell id="qChi3cOMpZM8t53Nzeiw-60" value="" style="endArrow=none;html=1;rounded=0;exitX=1;exitY=0.5;exitDx=0;exitDy=0;entryX=0;entryY=0;entryDx=0;entryDy=0;" edge="1" parent="1" source="qChi3cOMpZM8t53Nzeiw-43" target="qChi3cOMpZM8t53Nzeiw-32">
          <mxGeometry relative="1" as="geometry">
            <mxPoint x="90" y="325" as="sourcePoint" />
            <mxPoint x="130" y="265" as="targetPoint" />
          </mxGeometry>
        </mxCell>
        <mxCell id="qChi3cOMpZM8t53Nzeiw-61" value="" style="endArrow=none;html=1;rounded=0;exitX=1;exitY=0.5;exitDx=0;exitDy=0;entryX=0;entryY=0.5;entryDx=0;entryDy=0;" edge="1" parent="1" source="qChi3cOMpZM8t53Nzeiw-42" target="qChi3cOMpZM8t53Nzeiw-32">
          <mxGeometry relative="1" as="geometry">
            <mxPoint x="120" y="340" as="sourcePoint" />
            <mxPoint x="160" y="360" as="targetPoint" />
          </mxGeometry>
        </mxCell>
        <mxCell id="qChi3cOMpZM8t53Nzeiw-62" value="" style="endArrow=none;html=1;rounded=0;exitX=1;exitY=0.5;exitDx=0;exitDy=0;" edge="1" parent="1" source="qChi3cOMpZM8t53Nzeiw-34" target="qChi3cOMpZM8t53Nzeiw-32">
          <mxGeometry relative="1" as="geometry">
            <mxPoint x="130" y="350" as="sourcePoint" />
            <mxPoint x="170" y="370" as="targetPoint" />
          </mxGeometry>
        </mxCell>
        <mxCell id="qChi3cOMpZM8t53Nzeiw-63" value="" style="endArrow=none;html=1;rounded=0;exitX=0.558;exitY=0;exitDx=0;exitDy=0;entryX=0.5;entryY=1;entryDx=0;entryDy=0;exitPerimeter=0;" edge="1" parent="1" source="qChi3cOMpZM8t53Nzeiw-41" target="qChi3cOMpZM8t53Nzeiw-40">
          <mxGeometry relative="1" as="geometry">
            <mxPoint x="470" y="335.98" as="sourcePoint" />
            <mxPoint x="496.96000000000004" y="270" as="targetPoint" />
          </mxGeometry>
        </mxCell>
        <mxCell id="qChi3cOMpZM8t53Nzeiw-64" value="" style="endArrow=none;html=1;rounded=0;exitX=1;exitY=0;exitDx=0;exitDy=0;entryX=0.5;entryY=1;entryDx=0;entryDy=0;" edge="1" parent="1" source="qChi3cOMpZM8t53Nzeiw-41" target="qChi3cOMpZM8t53Nzeiw-38">
          <mxGeometry relative="1" as="geometry">
            <mxPoint x="637.5" y="375.98" as="sourcePoint" />
            <mxPoint x="664.46" y="310" as="targetPoint" />
          </mxGeometry>
        </mxCell>
        <mxCell id="qChi3cOMpZM8t53Nzeiw-65" value="" style="endArrow=none;html=1;rounded=0;exitX=1;exitY=0.5;exitDx=0;exitDy=0;entryX=0;entryY=0.5;entryDx=0;entryDy=0;" edge="1" parent="1" source="qChi3cOMpZM8t53Nzeiw-41" target="qChi3cOMpZM8t53Nzeiw-39">
          <mxGeometry relative="1" as="geometry">
            <mxPoint x="603.04" y="425.98" as="sourcePoint" />
            <mxPoint x="630" y="360" as="targetPoint" />
          </mxGeometry>
        </mxCell>
        <mxCell id="qChi3cOMpZM8t53Nzeiw-67" value="" style="endArrow=none;html=1;rounded=0;entryX=0;entryY=0.5;entryDx=0;entryDy=0;exitX=1;exitY=0.5;exitDx=0;exitDy=0;" edge="1" parent="1" source="qChi3cOMpZM8t53Nzeiw-37" target="qChi3cOMpZM8t53Nzeiw-24">
          <mxGeometry relative="1" as="geometry">
            <mxPoint x="140" y="190" as="sourcePoint" />
            <mxPoint x="160" y="360" as="targetPoint" />
          </mxGeometry>
        </mxCell>
        <mxCell id="qChi3cOMpZM8t53Nzeiw-68" value="" style="endArrow=none;html=1;rounded=0;entryX=0;entryY=0;entryDx=0;entryDy=0;exitX=1;exitY=0.5;exitDx=0;exitDy=0;" edge="1" parent="1" source="qChi3cOMpZM8t53Nzeiw-36" target="qChi3cOMpZM8t53Nzeiw-24">
          <mxGeometry relative="1" as="geometry">
            <mxPoint x="130" y="180" as="sourcePoint" />
            <mxPoint x="180" y="175" as="targetPoint" />
          </mxGeometry>
        </mxCell>
        <mxCell id="qChi3cOMpZM8t53Nzeiw-69" value="" style="endArrow=none;html=1;rounded=0;entryX=0.5;entryY=0;entryDx=0;entryDy=0;exitX=0.5;exitY=1;exitDx=0;exitDy=0;" edge="1" parent="1" source="qChi3cOMpZM8t53Nzeiw-28" target="qChi3cOMpZM8t53Nzeiw-24">
          <mxGeometry relative="1" as="geometry">
            <mxPoint x="140" y="190" as="sourcePoint" />
            <mxPoint x="190" y="185" as="targetPoint" />
          </mxGeometry>
        </mxCell>
        <mxCell id="qChi3cOMpZM8t53Nzeiw-70" value="" style="endArrow=none;html=1;rounded=0;entryX=0;entryY=1;entryDx=0;entryDy=0;exitX=1;exitY=0.25;exitDx=0;exitDy=0;" edge="1" parent="1" source="qChi3cOMpZM8t53Nzeiw-25" target="qChi3cOMpZM8t53Nzeiw-17">
          <mxGeometry relative="1" as="geometry">
            <mxPoint x="690" y="90" as="sourcePoint" />
            <mxPoint x="740" y="85" as="targetPoint" />
          </mxGeometry>
        </mxCell>
        <mxCell id="qChi3cOMpZM8t53Nzeiw-71" value="" style="endArrow=none;html=1;rounded=0;entryX=0.5;entryY=0;entryDx=0;entryDy=0;exitX=1;exitY=0.75;exitDx=0;exitDy=0;" edge="1" parent="1" source="qChi3cOMpZM8t53Nzeiw-25" target="qChi3cOMpZM8t53Nzeiw-19">
          <mxGeometry relative="1" as="geometry">
            <mxPoint x="670" y="92.5" as="sourcePoint" />
            <mxPoint x="737.573593128807" y="72.67766952966383" as="targetPoint" />
          </mxGeometry>
        </mxCell>
        <mxCell id="qChi3cOMpZM8t53Nzeiw-72" value="" style="endArrow=none;html=1;rounded=0;exitX=1;exitY=0.5;exitDx=0;exitDy=0;" edge="1" parent="1" source="qChi3cOMpZM8t53Nzeiw-32" target="qChi3cOMpZM8t53Nzeiw-41">
          <mxGeometry relative="1" as="geometry">
            <mxPoint x="340" y="260" as="sourcePoint" />
            <mxPoint x="500" y="260" as="targetPoint" />
          </mxGeometry>
        </mxCell>
        <mxCell id="qChi3cOMpZM8t53Nzeiw-73" value="M" style="resizable=0;html=1;align=left;verticalAlign=bottom;" connectable="0" vertex="1" parent="qChi3cOMpZM8t53Nzeiw-72">
          <mxGeometry x="-1" relative="1" as="geometry" />
        </mxCell>
        <mxCell id="qChi3cOMpZM8t53Nzeiw-74" value="N" style="resizable=0;html=1;align=right;verticalAlign=bottom;" connectable="0" vertex="1" parent="qChi3cOMpZM8t53Nzeiw-72">
          <mxGeometry x="1" relative="1" as="geometry" />
        </mxCell>
        <mxCell id="qChi3cOMpZM8t53Nzeiw-44" value="Relationship" style="shape=rhombus;perimeter=rhombusPerimeter;whiteSpace=wrap;html=1;align=center;" vertex="1" parent="1">
          <mxGeometry x="350" y="350" width="120" height="60" as="geometry" />
        </mxCell>
        <mxCell id="qChi3cOMpZM8t53Nzeiw-81" value="" style="endArrow=none;html=1;rounded=0;entryX=0;entryY=0.5;entryDx=0;entryDy=0;" edge="1" parent="1" target="qChi3cOMpZM8t53Nzeiw-49">
          <mxGeometry relative="1" as="geometry">
            <mxPoint x="290" y="620" as="sourcePoint" />
            <mxPoint x="450" y="620" as="targetPoint" />
          </mxGeometry>
        </mxCell>
        <mxCell id="qChi3cOMpZM8t53Nzeiw-82" value="N" style="resizable=0;html=1;align=right;verticalAlign=bottom;" connectable="0" vertex="1" parent="qChi3cOMpZM8t53Nzeiw-81">
          <mxGeometry x="1" relative="1" as="geometry" />
        </mxCell>
        <mxCell id="qChi3cOMpZM8t53Nzeiw-54" value="Relationship" style="shape=rhombus;perimeter=rhombusPerimeter;whiteSpace=wrap;html=1;align=center;" vertex="1" parent="1">
          <mxGeometry x="340" y="570" width="120" height="60" as="geometry" />
        </mxCell>
      </root>
    </mxGraphModel>
  </diagram>
</mxfile>
